@startuml ITS_payload_fsm_continuous_mode
scale 2
' Carto color palette
' light blue       #88CCEE
' light pink/red   #CC6677
' light yellow     #DDCC77
' dark green       #117733
' Dark purple      #332288
' Pink             #AA4499
' Light blue/green #44AA99
' Brown/yellow     #999933
' Dark purple      #882255
' Dark red         #661100
' Medium blue      #6699CC
' Grey             #888888

<style>
title {
  HorizontalAlignment right
  FontSize 40
  'BackGroundColor #F0F0F0
  Margin 1
  Padding 0
}
stateDiagram {
  arrow {
    FontSize 15
    FontStyle bold
  }
}
diamond {
    BackgroundColor #gold
    LineColor black
    LineThickness 0.5
}
</style>
skinparam RoundCorner 20
skinparam State {
  BackgroundColor #44AA99
  FontSize 16
  FontStyle bold
}


Title **ITS payload FSM** (continuous mode)
hide empty description

state after_TDH <<choice>>
'state after_TDH_no_data <<choice>>
state after_TDT <<choice>>
state after_Data <<choice>>



[*] -> IHW

IHW --> TDH

TDH --> after_TDH

after_TDH -right-> Data : [no_data == 0]
after_TDH -left-> TDH : [no_data == 1\n&& TDH]
after_TDH ---> DDW0 : [no_data == 1\n&& DDW0]
after_TDH -up-> IHW : [no_data == 1\n&& IHW]

'note left of after_TDH_no_data : Both TDH and DDW0\nare legal next words

'after_TDH_no_data --> TDH : [TDH]
'after_TDH_no_data --> DDW0 : [DDW0]
'after_TDH_no_data -up-> IHW : [IHW]


Data --> after_Data

'note left of after_Data : Both Data and TDT\nare legal next words

after_Data --> Data : [Data Word]
after_Data -up-> TDT : [TDT]

TDT -up-> after_TDT
after_TDT --> TDH : [packet_done == 1\n&& TDH]
after_TDT --> DDW0 : [packet_done == 1\n&& DDW0]
after_TDT -up-> IHW : [packet_done == 1\n&& IHW]
after_TDT -up-> Continuation : [packet_done == 0\n&& event page full]
'note right of after_TDT : IHW, TDH and DDW0\nare legal next words\nwhen **packet_done == 1**

state Continuation #6699CC {
  state after_c_Data <<choice>>
    [*] -> c_IHW
    c_IHW --> c_TDH : [stop_bit == 0\n&& Page >= 1]


    c_TDH --> c_Data
    c_Data -left-> after_c_Data

    after_c_Data -left-> c_Data : [Data Word]
    after_c_Data -up-> c_TDT : [TDT]

    c_TDT -up-> after_TDT

    'note top of after_c_Data : Both Data and TDT\nare legal next words\nif event page is not full

}


DDW0 -right-> [*]

@enduml
